<svg width="116" height="116" viewBox="0 0 116 116" fill="none" xmlns="http://www.w3.org/2000/svg">
<g clip-path="url(#clip0_6051_2445)">
<rect width="116" height="116" rx="8.83249" fill="#20529C"/>
<path d="M19.6243 91.4822H17.2591V82.0512C17.2591 81.7371 17.2624 81.4231 17.2691 81.1091C17.2758 80.7951 17.2824 80.4877 17.2891 80.187C17.3025 79.8864 17.3192 79.5991 17.3392 79.3251C17.1989 79.4788 17.0252 79.6458 16.8181 79.8262C16.6176 80.0066 16.4038 80.1937 16.1767 80.3875L14.4929 81.7305L13.3103 80.2371L17.66 76.8296H19.6243V91.4822ZM26.1188 91.4822L31.8716 78.8942H24.2647V76.8296H34.4072V78.4431L28.6544 91.4822H26.1188ZM39.6589 83.2037C38.9908 83.2037 38.3995 83.0668 37.885 82.7928C37.3772 82.5122 36.9796 82.1247 36.6923 81.6302C36.405 81.1358 36.2614 80.5645 36.2614 79.9164C36.2614 79.275 36.4017 78.7071 36.6823 78.2126C36.9696 77.7115 37.3672 77.3207 37.875 77.04C38.3894 76.7594 38.9841 76.6191 39.6589 76.6191C40.3338 76.6191 40.9251 76.7594 41.4329 77.04C41.9407 77.3207 42.3382 77.7082 42.6255 78.2026C42.9195 78.697 43.0665 79.2683 43.0665 79.9164C43.0665 80.5645 42.9195 81.1358 42.6255 81.6302C42.3382 82.1247 41.9407 82.5122 41.4329 82.7928C40.9251 83.0668 40.3338 83.2037 39.6589 83.2037ZM39.669 81.6804C40.2168 81.6804 40.6478 81.52 40.9618 81.1993C41.2759 80.8786 41.4329 80.451 41.4329 79.9164C41.4329 79.3619 41.2725 78.9242 40.9518 78.6035C40.6311 78.2828 40.2035 78.1224 39.669 78.1224C39.1211 78.1224 38.6868 78.2828 38.3661 78.6035C38.052 78.9242 37.895 79.3619 37.895 79.9164C37.895 80.451 38.052 80.8786 38.3661 81.1993C38.6801 81.52 39.1144 81.6804 39.669 81.6804ZM52.2369 78.6636C51.5354 78.6636 50.9073 78.7906 50.3527 79.0445C49.8048 79.2984 49.3405 79.6659 48.9596 80.1469C48.5788 80.6213 48.2881 81.1993 48.0877 81.8808C47.8872 82.5556 47.787 83.3173 47.787 84.1659C47.787 85.3018 47.9474 86.2806 48.2681 87.1024C48.5888 87.9176 49.0766 88.5456 49.7314 88.9866C50.3861 89.4209 51.2147 89.6381 52.2169 89.6381C52.8383 89.6381 53.4429 89.5779 54.0309 89.4577C54.6189 89.3374 55.2269 89.1737 55.855 88.9666V91.0111C55.2603 91.245 54.659 91.4154 54.051 91.5223C53.4429 91.6292 52.7414 91.6826 51.9463 91.6826C50.4496 91.6826 49.2069 91.3719 48.218 90.7505C47.2358 90.1292 46.5008 89.2539 46.0131 88.1247C45.532 86.9955 45.2915 85.6726 45.2915 84.1559C45.2915 83.0467 45.4451 82.0311 45.7525 81.1091C46.0598 80.187 46.5075 79.3919 47.0955 78.7238C47.6835 78.0489 48.4084 77.5311 49.2703 77.1703C50.1389 76.8028 51.1311 76.6191 52.247 76.6191C52.9819 76.6191 53.7035 76.7026 54.4118 76.8696C55.1267 77.03 55.7882 77.2605 56.3962 77.5612L55.5543 79.5456C55.0465 79.3051 54.5153 79.0979 53.9608 78.9242C53.4062 78.7505 52.8316 78.6636 52.2369 78.6636Z" fill="white"/>
<line x1="46.2005" y1="36.6208" x2="34.4238" y2="64.8848" stroke="white" stroke-opacity="0.75" stroke-width="0.588832"/>
<line x1="60.3328" y1="26.6108" x2="48.5562" y2="54.8748" stroke="white" stroke-opacity="0.5" stroke-width="0.588832"/>
<line x1="86.8304" y1="69.0065" x2="75.0537" y2="97.2705" stroke="white" stroke-opacity="0.75" stroke-width="0.588832"/>
<line x1="67.3987" y1="50.7529" x2="55.6221" y2="79.0168" stroke="white" stroke-opacity="0.75" stroke-width="0.588832"/>
<line x1="55.6219" y1="50.7529" x2="43.8452" y2="79.0168" stroke="white" stroke-opacity="0.25" stroke-width="0.588832"/>
<line x1="103.907" y1="77.2502" x2="92.1299" y2="105.514" stroke="white" stroke-opacity="0.45" stroke-width="0.588832"/>
<line x1="34.4241" y1="17.7783" x2="22.6475" y2="46.0422" stroke="white" stroke-opacity="0.25" stroke-width="0.588832"/>
<rect x="79.4922" y="45.929" width="121.299" height="37.6853" rx="18.8426" fill="#3376D9"/>
<rect x="55.3501" y="15.8984" width="121.299" height="42.3959" rx="21.198" fill="#2364C5" fill-opacity="0.75"/>
<rect x="25.9087" y="-11.7766" width="121.299" height="42.3959" rx="21.198" fill="#4F7FC8"/>
</g>
<defs>
<clipPath id="clip0_6051_2445">
<rect width="116" height="116" rx="8.83249" fill="white"/>
</clipPath>
</defs>
</svg>
