<svg width="61" height="35" viewBox="0 0 61 35" fill="none" xmlns="http://www.w3.org/2000/svg">
<path d="M1.16911 6.91781C0.412627 6.16438 0 5.20548 0 4.07534C0 1.81507 1.78805 0 4.0575 0C5.19222 0 6.22379 0.479452 7.01466 1.26712L30.5344 25.2397L53.9853 1.26712C54.7762 0.479452 55.8422 0 56.9425 0C59.212 0 61 1.81507 61 4.07534C61 5.20548 60.5874 6.16438 59.8309 6.91781L33.6979 33.5616C32.8038 34.5205 31.7035 34.9658 30.5 35C29.2965 35 28.2649 34.5205 27.3365 33.5616L1.16911 6.91781Z" fill="#020202"/>
</svg>
