<svg xmlns="http://www.w3.org/2000/svg" width="32" height="19" viewBox="0 0 32 19" fill="none">
<path fill-rule="evenodd" clip-rule="evenodd" d="M1 0.5C1.27614 0.5 1.5 0.723858 1.5 1V9.625C1.5 10.4534 2.17157 11.125 3 11.125H28.625C28.9011 11.125 29.125 11.3489 29.125 11.625C29.125 11.9011 28.9011 12.125 28.625 12.125H3C1.61929 12.125 0.5 11.0057 0.5 9.625V1C0.5 0.723858 0.723858 0.5 1 0.5ZM24.0214 4.89645C24.2167 4.70118 24.5333 4.70118 24.7286 4.89645L31.4571 11.625L24.7286 18.3536C24.5333 18.5488 24.2167 18.5488 24.0214 18.3536C23.8262 18.1583 23.8262 17.8417 24.0214 17.6464L30.0429 11.625L24.0214 5.60355C23.8262 5.40829 23.8262 5.09171 24.0214 4.89645Z" fill="black"/>
</svg>