<svg width="36" height="36" viewBox="0 0 36 36" fill="none" xmlns="http://www.w3.org/2000/svg">
<path d="M18.0018 12.75C16.6094 12.75 15.274 13.3031 14.2894 14.2877C13.3049 15.2723 12.7518 16.6076 12.7518 18C12.7518 19.3924 13.3049 20.7277 14.2894 21.7123C15.274 22.6969 16.6094 23.25 18.0018 23.25C19.3941 23.25 20.7295 22.6969 21.7141 21.7123C22.6986 20.7277 23.2518 19.3924 23.2518 18C23.2518 16.6076 22.6986 15.2723 21.7141 14.2877C20.7295 13.3031 19.3941 12.75 18.0018 12.75ZM18.0018 9.25C20.3224 9.25 22.548 10.1719 24.1889 11.8128C25.8299 13.4538 26.7517 15.6794 26.7517 18C26.7517 20.3206 25.8299 22.5462 24.1889 24.1872C22.548 25.8281 20.3224 26.75 18.0018 26.75C15.6811 26.75 13.4555 25.8281 11.8146 24.1872C10.1736 22.5462 9.25175 20.3206 9.25175 18C9.25175 15.6794 10.1736 13.4538 11.8146 11.8128C13.4555 10.1719 15.6811 9.25 18.0018 9.25ZM29.3767 8.8125C29.3767 9.39266 29.1463 9.94906 28.736 10.3593C28.3258 10.7695 27.7694 11 27.1892 11C26.6091 11 26.0527 10.7695 25.6425 10.3593C25.2322 9.94906 25.0017 9.39266 25.0017 8.8125C25.0017 8.23234 25.2322 7.67594 25.6425 7.2657C26.0527 6.85547 26.6091 6.625 27.1892 6.625C27.7694 6.625 28.3258 6.85547 28.736 7.2657C29.1463 7.67594 29.3767 8.23234 29.3767 8.8125ZM18.0018 4C13.6723 4 12.9653 4.01225 10.951 4.1015C9.579 4.16625 8.6585 4.35 7.8045 4.6825C7.08983 4.94489 6.44372 5.36546 5.9145 5.91275C5.36676 6.44195 4.94562 7.08802 4.6825 7.80275C4.35 8.66025 4.16625 9.579 4.10325 10.9493C4.01225 12.8813 4 13.5568 4 18C4 22.3312 4.01225 23.0365 4.1015 25.0507C4.16625 26.421 4.35 27.3433 4.68075 28.1955C4.97825 28.9568 5.32825 29.5045 5.90925 30.0855C6.499 30.6735 7.04675 31.0252 7.79925 31.3157C8.66375 31.65 9.58425 31.8355 10.9493 31.8985C12.8813 31.9895 13.5568 32 18 32C22.3312 32 23.0365 31.9877 25.0507 31.8985C26.4192 31.8337 27.3398 31.65 28.1955 31.3193C28.9095 31.0556 29.5554 30.6352 30.0855 30.089C30.6753 29.501 31.027 28.9532 31.3175 28.199C31.65 27.338 31.8355 26.4175 31.8985 25.049C31.9895 23.1187 32 22.4415 32 18C32 13.6705 31.9877 12.9635 31.8985 10.9493C31.8337 9.58075 31.6483 8.65675 31.3175 7.80275C31.0537 7.08878 30.6333 6.44297 30.0872 5.91275C29.5583 5.36473 28.9121 4.94354 28.1973 4.68075C27.3398 4.34825 26.4192 4.1645 25.0507 4.1015C23.1205 4.0105 22.445 4 18 4M18 0.5C22.7547 0.5 23.348 0.5175 25.2152 0.605C27.0772 0.6925 28.3477 0.98475 29.4625 1.41875C30.6175 1.86325 31.5905 2.46525 32.5635 3.4365C33.4534 4.31132 34.1419 5.36953 34.5812 6.5375C35.0135 7.65225 35.3075 8.92275 35.395 10.7865C35.4772 12.652 35.5 13.2452 35.5 18C35.5 22.7547 35.4825 23.348 35.395 25.2135C35.3075 27.0772 35.0135 28.346 34.5812 29.4625C34.1431 30.6311 33.4544 31.6895 32.5635 32.5635C31.6884 33.4531 30.6303 34.1416 29.4625 34.5812C28.3477 35.0135 27.0772 35.3075 25.2152 35.395C23.348 35.4772 22.7547 35.5 18 35.5C13.2452 35.5 12.652 35.4825 10.7847 35.395C8.92275 35.3075 7.654 35.0135 6.5375 34.5812C5.36907 34.1428 4.31067 33.4542 3.4365 32.5635C2.5465 31.6888 1.85793 30.6305 1.41875 29.4625C0.98475 28.3477 0.6925 27.0772 0.605 25.2135C0.521 23.348 0.5 22.7547 0.5 18C0.5 13.2452 0.5175 12.652 0.605 10.7865C0.6925 8.92275 0.98475 7.654 1.41875 6.5375C1.85666 5.36881 2.54541 4.31031 3.4365 3.4365C4.31092 2.54615 5.36925 1.85753 6.5375 1.41875C7.65225 0.98475 8.921 0.6925 10.7847 0.605C12.6537 0.52275 13.247 0.5 18.0018 0.5" fill="white"/>
</svg>
