<svg width="105" height="76" viewBox="0 0 105 76" fill="none" xmlns="http://www.w3.org/2000/svg">
<path d="M52.5587 76C81.5212 76 105 58.9868 105 38C105 17.0132 81.5212 3.8147e-06 52.5587 3.8147e-06C23.5961 3.8147e-06 0.117318 17.0132 0.117318 38C0.117318 58.9868 23.5961 76 52.5587 76Z" fill="white"/>
<path d="M88.0121 9.9989C93.1835 37.289 70.3581 35.0602 61.6272 44.1196C59.783 46.1129 59.1166 50.3139 59.363 53.9787C58.3517 54.5964 57.263 55.1 56.1086 55.5453L55.9842 55.5919C55.0668 54.9578 54.2033 54.2677 53.4478 53.5334L52.6641 52.7734L51.7889 53.4308C50.848 54.1395 49.879 54.8319 48.8841 55.4963C47.7743 55.0627 46.7301 54.5731 45.7541 53.9787C46.0004 50.3139 45.3341 46.1129 43.4898 44.1196C34.759 35.0602 11.9335 37.289 17.1049 9.9989C6.66121 16.9461 0.117318 26.9194 0.117318 38C0.117318 46.5139 3.98166 54.375 10.5093 60.7114C16.8445 59.2031 22.5461 56.0955 25.6058 53.1254C27.6706 55.459 30.1531 56.7086 32.4361 57.5898C30.7537 57.6038 27.2788 56.8322 25.6058 55.881C20.3499 59.2217 15.439 60.8257 11.3891 61.539C11.8115 61.9283 12.2456 62.3107 12.689 62.686C13.8904 62.4739 14.9744 62.1871 15.8989 61.8398C15.2395 62.5461 14.4277 63.045 13.529 63.3807C23.128 71.1276 37.0585 76 52.5587 76C68.0588 76 81.989 71.1276 91.588 63.3807L91.6443 63.3341L92.3951 62.714L92.428 62.686C92.8715 62.3107 93.3055 61.9283 93.7279 61.539C89.6781 60.8257 84.7671 59.2217 79.5112 55.881C77.8383 56.8322 74.3633 57.6038 72.681 57.5898C74.964 56.7086 77.4464 55.459 79.5112 53.1254C82.5709 56.0955 88.2726 59.2031 94.6078 60.7114C101.135 54.375 105 46.5139 105 38C105 26.9194 98.4558 16.9461 88.0121 9.9989ZM16.8257 60.6811C26.5467 61.4971 37.1171 56.7249 41.7183 52.2582C43.7831 54.5895 46.2656 55.8414 48.5486 56.7226C46.8662 56.7366 43.3913 55.9626 41.7183 55.0114C28.1305 63.6512 16.8257 60.6811 16.8257 60.6811ZM37.1218 58.7928C33.8767 62.4949 28.168 62.5601 24.1698 61.8584C29.3154 61.7255 34.1442 60.455 37.1218 58.7928ZM22.9122 63.1989C32.0888 66.486 43.5414 64.5953 49.1493 61.4621C41.1904 68.5166 28.6819 66.4837 22.9122 63.1989ZM35.6224 62.8585C36.0448 62.7933 42.9783 61.6556 52.5585 54.4379C57.1598 58.9047 67.7301 63.6768 77.4488 62.8609C77.4488 62.8609 66.144 65.8309 52.5585 57.1912C52.5585 57.1912 43.0675 62.4739 35.6224 62.8585ZM67.9953 58.7928C70.9728 60.455 75.8016 61.7255 80.9472 61.8584C76.949 62.5601 71.2403 62.4949 67.9953 58.7928ZM55.9678 61.4621C61.5756 64.5953 73.0282 66.486 82.2049 63.1989C76.4352 66.4837 63.9267 68.5166 55.9678 61.4621ZM88.2914 60.6811C88.2914 60.6811 76.9866 63.6512 63.3988 55.0114C61.7258 55.9626 58.2508 56.7366 56.5685 56.7226C58.8515 55.8414 61.334 54.5895 63.3988 52.2582C68 56.7249 78.5704 61.4971 88.2914 60.6811Z" fill="#15538E"/>
<path d="M87.9441 9.9546C84.624 29.7496 63.3237 16.8272 52.5585 27.2411C41.791 16.8272 20.4931 29.7496 17.1729 9.9546C26.4998 3.77202 38.9216 3.8147e-06 52.5587 3.8147e-06C66.1958 3.8147e-06 78.6173 3.77202 87.9441 9.9546Z" fill="#199466"/>
</svg>
