<svg width="16" height="16" viewBox="0 0 16 16" fill="none" xmlns="http://www.w3.org/2000/svg">
<path d="M6.38336 12.7666C7.76129 12.7666 9.04791 12.3184 10.0938 11.5713L14.0284 15.5059C14.211 15.6885 14.4517 15.7798 14.7007 15.7798C15.2403 15.7798 15.6304 15.3647 15.6304 14.8335C15.6304 14.5845 15.5474 14.3521 15.3648 14.1694L11.4551 10.2515C12.2769 9.17236 12.7667 7.83594 12.7667 6.3833C12.7667 2.87207 9.89459 0 6.38336 0C2.86383 0 6.10352e-05 2.87207 6.10352e-05 6.3833C6.10352e-05 9.89453 2.86383 12.7666 6.38336 12.7666ZM6.38336 11.3887C3.6358 11.3887 1.37799 9.12256 1.37799 6.3833C1.37799 3.64404 3.6358 1.37793 6.38336 1.37793C9.12262 1.37793 11.3887 3.64404 11.3887 6.3833C11.3887 9.12256 9.12262 11.3887 6.38336 11.3887Z" fill="#020202"/>
</svg>
