<svg width="36" height="28" viewBox="0 0 36 28" fill="none" xmlns="http://www.w3.org/2000/svg">
<path d="M31.3123 5.24125C31.1793 4.71975 30.8013 4.326 30.369 4.20525C29.6025 3.99 25.8768 3.5 18.0018 3.5C10.1268 3.5 6.40275 3.99 5.631 4.20525C5.204 4.32425 4.826 4.718 4.69125 5.24125C4.5005 5.98325 4.00175 9.09125 4.00175 14C4.00175 18.907 4.5005 22.015 4.69125 22.7605C4.82425 23.2803 5.20225 23.674 5.63275 23.793C6.40275 24.01 10.125 24.5 18 24.5C25.875 24.5 29.6008 24.01 30.3708 23.7948C30.7978 23.6758 31.1758 23.282 31.3105 22.7587C31.503 22.0167 32 18.9 32 14C32 9.1 31.503 5.985 31.3123 5.24125ZM34.7002 4.3715C35.5 7.49 35.5 14 35.5 14C35.5 14 35.5 20.51 34.7002 23.6285C34.2557 25.3523 32.9555 26.7085 31.3088 27.167C28.3198 28 18 28 18 28C18 28 7.68725 28 4.69125 27.167C3.0375 26.7015 1.739 25.347 1.29975 23.6285C0.5 20.51 0.5 14 0.5 14C0.5 14 0.5 7.49 1.29975 4.3715C1.74425 2.64775 3.0445 1.2915 4.69125 0.833C7.689 -2.98023e-07 18.0018 0 18.0018 0C18.0018 0 28.3198 -2.98023e-07 31.3105 0.833C32.9625 1.2985 34.2627 2.653 34.702 4.3715M14.5018 20.125V7.875L25.0017 14L14.5018 20.125Z" fill="white"/>
</svg>
